<?xml version="1.0" encoding="utf-8"?>
<!-- Generator: Adobe Illustrator 17.0.0, SVG Export Plug-In . SVG Version: 6.00 Build 0)  -->
<!DOCTYPE svg PUBLIC "-//W3C//DTD SVG 1.1//EN" "http://www.w3.org/Graphics/SVG/1.1/DTD/svg11.dtd">
<svg version="1.1" id="Layer_1" xmlns="http://www.w3.org/2000/svg" xmlns:xlink="http://www.w3.org/1999/xlink" x="0px" y="0px"
	 width="83.404px" height="27.206px" viewBox="0 0 83.404 27.206" enable-background="new 0 0 83.404 27.206" xml:space="preserve">
<g>
	<path fill="#273896" stroke="#273896" stroke-width="0.0938" stroke-miterlimit="10" d="M73.051,3.616
		c0.56-1.148,1.093-2.31,1.667-3.458c0.15,1.175,0.314,2.337,0.478,3.512c1.134-0.383,2.241-0.834,3.389-1.162
		c-0.806,0.984-1.585,1.995-2.364,3.007c0.847,0.67,1.695,1.312,2.528,1.982c-1.134,0.123-2.269,0.178-3.403,0.273
		c-0.041,1.203-0.123,2.419-0.191,3.635C74.5,10.532,73.898,9.63,73.27,8.741c-0.943,0.861-1.9,1.722-2.815,2.61
		c0.355-1.23,0.711-2.46,1.052-3.69c-1.093-0.137-2.2-0.287-3.294-0.437c1.066-0.601,2.146-1.216,3.212-1.831
		c-0.437-1.052-0.888-2.091-1.312-3.143C71.083,2.728,72.081,3.138,73.051,3.616L73.051,3.616z"/>
	<path fill="#EC1C25" stroke="#EC1C25" stroke-width="0.0938" stroke-miterlimit="10" d="M62.514,19.443
		c2.884-2.46,5.48-5.248,7.927-8.132c-1.107,3.813-3.253,7.325-6.15,10.032c-0.683,0.547-1.312,1.189-2.077,1.654
		c-2.501,1.695-5.453,2.788-8.487,2.815l0.068-0.055c2.392-1.394,4.688-2.938,6.833-4.688C61.256,20.536,61.926,20.03,62.514,19.443
		L62.514,19.443z"/>
	<path fill="#273896" stroke="#273896" stroke-width="0.0938" stroke-miterlimit="10" d="M5.728,15.589
		c1.257-0.342,2.569-0.478,3.868-0.465c1.435-0.014,2.884,0.082,4.291,0.328c-0.205,0.547-0.41,1.08-0.588,1.626
		c-2.036-0.15-4.141-0.287-6.164,0.178c-0.615,0.164-1.408,0.41-1.572,1.134c-0.027,0.547,0.478,0.861,0.943,0.998
		c1.449,0.396,3.007,0.342,4.373,0.984c0.642,0.287,1.189,0.847,1.298,1.558c0.178,1.107-0.137,2.323-0.916,3.157
		c-0.888,0.957-2.2,1.38-3.444,1.613c-2.583,0.41-5.248,0.191-7.763-0.451c0.137-0.574,0.301-1.148,0.437-1.722
		c2.173,0.273,4.401,0.615,6.574,0.164c0.82-0.178,1.749-0.615,1.9-1.531c0.164-0.601-0.369-1.08-0.888-1.23
		c-1.38-0.424-2.856-0.328-4.209-0.834c-0.588-0.219-1.162-0.615-1.38-1.216c-0.41-1.052-0.027-2.296,0.793-3.034
		C3.992,16.231,4.84,15.835,5.728,15.589L5.728,15.589z"/>
	<path fill="#273896" stroke="#273896" stroke-width="0.0938" stroke-miterlimit="10" d="M56.405,15.124c0.888,0,1.79,0.014,2.679,0
		c1.093,1.476,2.269,2.897,3.499,4.25l-0.068,0.068c-0.588,0.588-1.257,1.093-1.886,1.626
		C59.097,19.183,57.689,17.188,56.405,15.124L56.405,15.124z"/>
	<path fill="#273896" stroke="#273896" stroke-width="0.0938" stroke-miterlimit="10" d="M40.92,10.436
		c-0.287,1.49-0.588,2.993-0.875,4.496c-2.351-0.068-4.824-0.232-7.025,0.765c-1.845,0.765-3.335,2.378-3.854,4.319
		c-0.492,1.585-0.437,3.458,0.615,4.811c1.025,1.285,2.692,1.818,4.278,1.9c1.79,0.082,3.717-0.191,5.18-1.298
		c1.38-1.011,2.146-2.679,2.474-4.319c0.697-3.622,1.38-7.243,2.064-10.879C42.834,10.299,41.877,10.354,40.92,10.436z
		 M38.692,21.219c-0.164,0.916-0.506,1.859-1.216,2.487c-0.875,0.806-2.146,0.984-3.28,0.847c-0.793-0.068-1.64-0.451-2.009-1.203
		c-0.451-0.861-0.301-1.886-0.068-2.788c0.314-1.271,1.107-2.46,2.296-3.061c1.585-0.82,3.43-0.806,5.166-0.615
		C39.266,18.336,38.993,19.784,38.692,21.219z"/>
	<path fill="#273896" stroke="#273896" stroke-width="0.0938" stroke-miterlimit="10" d="M55.011,16.012
		c-0.943-0.806-2.255-0.998-3.458-1.025c-2.282-0.055-4.674,0.615-6.341,2.228c-1.312,1.203-2.091,2.938-2.173,4.715
		c-0.096,1.107,0.191,2.255,0.902,3.116c0.861,1.134,2.255,1.763,3.635,1.982c2.105,0.355,4.373,0,6.15-1.216l0.068-0.055
		c-2.05,0.219-4.278,0.273-6.15-0.724c-1.189-0.656-1.763-2.064-1.626-3.376c2.364,0.424,4.879,0.519,7.161-0.342
		c0.957-0.383,1.9-0.998,2.378-1.941C56.077,18.295,55.954,16.832,55.011,16.012z M51.676,19.771
		c-1.695,0.56-3.526,0.424-5.248,0.137c0.492-1.134,1.353-2.146,2.487-2.665c0.97-0.437,2.105-0.615,3.157-0.342
		c0.492,0.123,0.943,0.533,0.97,1.08C53.166,18.841,52.414,19.511,51.676,19.771z"/>
	<path fill="#273896" stroke="#273896" stroke-width="0.0938" stroke-miterlimit="10" d="M27.622,18.773
		c-0.164-1.216-0.929-2.31-1.982-2.911c-1.421-0.834-3.157-0.957-4.756-0.793c-2.159,0.219-4.278,1.216-5.672,2.911
		c-1.121,1.38-1.736,3.198-1.558,4.975c0.123,1.257,0.888,2.405,1.968,3.034c1.394,0.834,3.075,0.957,4.647,0.834
		c2.392-0.205,4.77-1.38,6.15-3.389C27.335,22.094,27.841,20.399,27.622,18.773z M24.506,20.153
		c-0.123,1.011-0.492,2.023-1.134,2.829c-0.888,1.148-2.351,1.845-3.799,1.79c-0.793,0-1.64-0.191-2.2-0.779
		c-0.396-0.41-0.588-0.97-0.615-1.531c-0.096-2.351,1.462-4.811,3.84-5.357c1.039-0.246,2.241-0.15,3.089,0.547
		C24.383,18.267,24.616,19.265,24.506,20.153z"/>
	<path fill="#273896" stroke="#273896" stroke-width="0.0938" stroke-miterlimit="10" d="M83.274,18.623
		c-0.219-1.326-1.175-2.474-2.392-3.02c-1.531-0.724-3.28-0.765-4.92-0.533c-2.405,0.355-4.701,1.736-5.931,3.868
		c-0.765,1.353-1.162,2.966-0.847,4.51c0.246,1.257,1.162,2.323,2.323,2.87c1.503,0.711,3.225,0.793,4.852,0.574
		c2.31-0.328,4.565-1.572,5.836-3.553C83.082,21.957,83.561,20.249,83.274,18.623z M77.069,24.513
		c-1.08,0.437-2.337,0.506-3.43,0.068c-0.752-0.287-1.285-1.039-1.353-1.845c-0.219-2.474,1.421-5.111,3.922-5.658
		c0.984-0.219,2.118-0.164,2.952,0.451c0.656,0.478,0.984,1.285,0.998,2.077C80.185,21.643,78.996,23.734,77.069,24.513z"/>
	<path fill="#273896" stroke="#273896" stroke-width="0.0938" stroke-miterlimit="10" d="M62.213,22.996
		c0.765-0.465,1.394-1.107,2.077-1.654c1.681,1.845,3.389,3.663,5.098,5.48c-1.189-0.027-2.392,0.014-3.581-0.014
		c-0.314-0.191-0.519-0.478-0.779-0.724C64.045,25.087,63.088,24.076,62.213,22.996L62.213,22.996z"/>
</g>
</svg>
