<svg id="Capa_1" data-name="Capa 1" xmlns="http://www.w3.org/2000/svg" viewBox="0 0 72 25"><defs><style>.cls-1{fill:#f38e00;}.cls-2{fill:#4f5e5a;}.cls-3{fill:#fff;}</style></defs><title>Mesa de trabajo 1ico-cheque-dejeuner</title><path class="cls-1" d="M10.6,5.73v4.84c0,.23,0,.23-.23.23H.71c-.23,0-.23,0-.23-.23V.86c0-.19,0-.19.2-.19h9.83q.08,0,.09.09v5Zm-7.52-3H2.9l-.49.11c-.24.06-.24.06-.24.31V5.66a4.35,4.35,0,0,0,0,.51A1.36,1.36,0,0,0,3,7.34a1.81,1.81,0,0,0,1.66-.1,1.26,1.26,0,0,0,.66-1.1c0-1.08,0-2.15,0-3.23,0-.05,0-.09,0-.14l-.17,0-.47.1c-.25,0-.25,0-.25.31V5.68c0,.13,0,.25,0,.38a.56.56,0,0,1-.59.55H3.67a.54.54,0,0,1-.55-.47,1.81,1.81,0,0,1,0-.4v-3ZM5.71,8.52l.17,0,.53-.12c.16,0,.17-.05.17-.21V7.43a1.28,1.28,0,0,1,0-.17,1.64,1.64,0,0,0,2.12-.37,1.73,1.73,0,0,0,.22-2A1.66,1.66,0,0,0,6.6,4.19l0-.39-.18,0-.5.12C5.71,4,5.7,4,5.7,4.18V8.31C5.7,8.38,5.71,8.44,5.71,8.52Z"/><path class="cls-2" d="M46.25,13.24l-1.83.23V10.29c-.09,0-.13.05-.17.08a3.37,3.37,0,0,1-1.44.62,3.4,3.4,0,0,1-2.93-.83,4,4,0,0,1-1.37-2.5,4.11,4.11,0,0,1,1.93-4.13,3.68,3.68,0,0,1,2.69-.35,2.58,2.58,0,0,1,1,.6l.34.31a1,1,0,0,0,0-.38c0-.12,0-.25,0-.37a10.36,10.36,0,0,1,1.72-.14h0a0,0,0,0,1,0,0,.49.49,0,0,1,0,.12v9.84ZM44.6,7.06a2.42,2.42,0,0,0-.29-1.15,2.14,2.14,0,0,0-3.65-.24,2.39,2.39,0,0,0,0,2.77,2.12,2.12,0,0,0,3.18.35A2.28,2.28,0,0,0,44.6,7.06Z"/><path class="cls-2" d="M22.5.66,24.34.43c0,.18,0,.34,0,.5s0,.35,0,.52V4l.11-.08A2.12,2.12,0,0,1,26,3.1a3.77,3.77,0,0,1,1.42.07A2.24,2.24,0,0,1,29.1,5a3.05,3.05,0,0,1,.07.67c0,1.67,0,3.34,0,5v.14a16.55,16.55,0,0,1-1.84.12c0-.07,0-.14,0-.21V6.26a2.61,2.61,0,0,0-.09-.73,1.13,1.13,0,0,0-1.16-.86,1.64,1.64,0,0,0-1.68,1.41,2.7,2.7,0,0,0,0,.49c0,1.34,0,2.68,0,4v.23l-1.84.11a1.65,1.65,0,0,1,0-.21V.93A2.62,2.62,0,0,1,22.5.66Z"/><path class="cls-2" d="M36.7,8.47l.79,1.59-.21.14A5.62,5.62,0,0,1,35,11a4.33,4.33,0,0,1-3.28-.88A3.86,3.86,0,0,1,31.64,4a4.07,4.07,0,0,1,2.18-.93,3.94,3.94,0,0,1,4,2.15s0,.07.06.13L35.34,7c-.85.54-1.71,1.07-2.57,1.6a.91.91,0,0,0,.32.42,1.65,1.65,0,0,0,1,.35,3.42,3.42,0,0,0,1.83-.41c.22-.11.42-.24.64-.36ZM35.57,5.12a1,1,0,0,0-.38-.29,2,2,0,0,0-1.27-.19A2.32,2.32,0,0,0,32,7.14l0,.11Z"/><path class="cls-2" d="M63.18,5.38,58,8.57a1,1,0,0,0,.25.36,1.59,1.59,0,0,0,1.05.41,3.54,3.54,0,0,0,1.86-.42c.21-.11.41-.24.61-.35l.16-.1.79,1.59-.17.11A5.73,5.73,0,0,1,60,11a4.27,4.27,0,0,1-3.18-1,3.73,3.73,0,0,1-1.35-2.44,3.79,3.79,0,0,1,1.38-3.52,4.14,4.14,0,0,1,2.24-1,4,4,0,0,1,4,2.21A.24.24,0,0,1,63.18,5.38Zm-2.35-.25a2,2,0,0,0-2.32-.28,2.28,2.28,0,0,0-1.19,2.4Z"/><path class="cls-2" d="M21.16,3.1,21,3a3.19,3.19,0,0,0-2-.56,2.83,2.83,0,0,0-2,1,3.54,3.54,0,0,0-.12,4.55,3,3,0,0,0,2.5,1.13,2.19,2.19,0,0,0,1-.26c.24-.13.47-.29.7-.43l.17-.12c0,.17,0,.31-.05.46-.06.59-.13,1.18-.19,1.78a.27.27,0,0,1-.18.26,4,4,0,0,1-1,.26,5.17,5.17,0,0,1-3.42-.82,4.86,4.86,0,0,1-2.09-3,5.58,5.58,0,0,1,.44-4A4.86,4.86,0,0,1,18.23.52a4.52,4.52,0,0,1,2.13.07l.37.14a.18.18,0,0,1,.13.17c.08.61.17,1.21.25,1.81C21.13,2.82,21.14,2.94,21.16,3.1Z"/><path class="cls-2" d="M52.59,3.3l1.82-.23c0,.14.05,7.54,0,7.74l-1.73.11V10l0,0-.09.09c-.12.13-.23.27-.36.39a2.3,2.3,0,0,1-1.33.58,4,4,0,0,1-1.19,0A2.29,2.29,0,0,1,47.8,9a3.64,3.64,0,0,1,0-.57V3.31c.61-.1,1.21-.16,1.84-.24,0,.08,0,.15,0,.22V7.91a2.23,2.23,0,0,0,.09.68,1.15,1.15,0,0,0,1.19.85,1.75,1.75,0,0,0,.84-.22A1.66,1.66,0,0,0,52.54,8a2.32,2.32,0,0,0,0-.53c0-1.31,0-2.63,0-3.94Z"/><path class="cls-3" d="M3.08,2.77v3a1.81,1.81,0,0,0,0,.4.54.54,0,0,0,.55.47h.17a.56.56,0,0,0,.59-.55c0-.13,0-.25,0-.38V3.2c0-.26,0-.26.25-.31l.47-.1.17,0s0,.09,0,.14c0,1.08,0,2.15,0,3.23a1.26,1.26,0,0,1-.66,1.1A1.81,1.81,0,0,1,3,7.34a1.36,1.36,0,0,1-.84-1.17,4.35,4.35,0,0,1,0-.51V3.2c0-.25,0-.25.24-.31l.49-.11Z"/><path class="cls-3" d="M5.71,8.52c0-.08,0-.14,0-.21V4.18c0-.19,0-.19.19-.24l.5-.12.18,0,0,.39a1.66,1.66,0,0,1,2.34.71,1.73,1.73,0,0,1-.22,2,1.64,1.64,0,0,1-2.12.37,1.28,1.28,0,0,0,0,.17v.74c0,.16,0,.17-.17.21l-.53.12ZM7.4,6.68a.85.85,0,0,0,.75-.4,1,1,0,0,0,.14-.79.9.9,0,0,0-1.78.2A.9.9,0,0,0,7.4,6.68Z"/><path class="cls-1" d="M7.4,6.68a.9.9,0,0,1-.89-1,.9.9,0,0,1,1.78-.2,1,1,0,0,1-.14.79A.85.85,0,0,1,7.4,6.68Z"/><path class="cls-2" d="M24,15.48,22.85,17l-.38-.28A4.49,4.49,0,0,0,21.19,16a3.23,3.23,0,0,0-3.14.47,3.46,3.46,0,0,0-1.26,2.08,3.41,3.41,0,0,0,.13,2,3.35,3.35,0,0,0,2.36,2,3.29,3.29,0,0,0,2.12-.18c.26-.11.52-.25.78-.38a.11.11,0,0,0,.06-.11V20.32a.2.2,0,0,0,0-.07H19.28c0-.1.06-.19.09-.28.16-.5.33-1,.5-1.51a.11.11,0,0,1,.13-.09h4.07c.12,0,.12,0,.12.12V23a.21.21,0,0,1-.06.16,3.61,3.61,0,0,1-1.1.72,7.35,7.35,0,0,1-2.24.68,5.31,5.31,0,0,1-4.42-1.38,5,5,0,0,1-1.63-3.05,5.13,5.13,0,0,1,1.35-4.43,5.19,5.19,0,0,1,3-1.63,5.68,5.68,0,0,1,4.77,1.31Z"/><path class="cls-2" d="M53.52,24.33l-1.87.12V19.31a3,3,0,0,0,0-.42.74.74,0,0,0-.55-.63,1.71,1.71,0,0,0-.81,0,1.06,1.06,0,0,0-.8.74,2.17,2.17,0,0,0-.11.72V24.2c0,.13,0,.13-.13.14l-.92.06-.81.05a.31.31,0,0,1,0-.1q0-3.72,0-7.44c0-.07,0-.1.1-.11l.93-.09.63-.06h.11v.95l.07-.06c.13-.13.26-.27.39-.39a2,2,0,0,1,1.35-.56,2.41,2.41,0,0,1,2,.85l.09.09h0l.13-.13a2.79,2.79,0,0,1,1.16-.71,2.76,2.76,0,0,1,2.38.37,2,2,0,0,1,.84,1.45,5.65,5.65,0,0,1,0,.59v5.23l-1.87.12V19.18a2,2,0,0,0,0-.35.69.69,0,0,0-.49-.55,1.57,1.57,0,0,0-.91,0,1,1,0,0,0-.77.83,3.1,3.1,0,0,0-.09.61v4.65Z"/><path class="cls-2" d="M66.32,18.9,66.1,19l-4.85,3c-.07,0-.07.08,0,.14a1.35,1.35,0,0,0,1,.63,3.15,3.15,0,0,0,2-.32c.28-.14.55-.31.83-.47L65.1,22l.14.27.62,1.26s0,.08,0,.12a5.48,5.48,0,0,1-2.16.86,4.72,4.72,0,0,1-1.3.07,4.25,4.25,0,0,1-2.59-1.18,3.86,3.86,0,0,1-.46-5.08A4.12,4.12,0,0,1,62,16.64a4,4,0,0,1,4.25,2.18Zm-5.89,1.87L64,18.63c-.09-.07-.16-.14-.24-.19a1.91,1.91,0,0,0-1.56-.24,2.25,2.25,0,0,0-1.71,1.71A2.07,2.07,0,0,0,60.43,20.77Z"/><path class="cls-2" d="M29.2,24.58a4.12,4.12,0,0,1-3.56-2.25,3.51,3.51,0,0,1-.42-2,4.15,4.15,0,0,1,4.14-3.74,4.19,4.19,0,0,1,3.94,2.61,3.57,3.57,0,0,1,.24,1.74A3.94,3.94,0,0,1,31,24.26,4.46,4.46,0,0,1,29.2,24.58Zm.31-1.72a2.29,2.29,0,0,0,1.39-.52,2.14,2.14,0,0,0,.84-2.21,2.39,2.39,0,0,0-2.25-1.84,2.43,2.43,0,0,0-1.71.59,2.19,2.19,0,0,0-.68,2.42A2.48,2.48,0,0,0,29.51,22.86Z"/><path class="cls-2" d="M34.59,16.81l1.87-.23v.11c0,1.62,0,3.25,0,4.88a1.55,1.55,0,0,0,.32,1,1,1,0,0,0,.73.38,1.7,1.7,0,0,0,1.35-.42,1.79,1.79,0,0,0,.51-1,2.28,2.28,0,0,0,0-.45V16.81l1.86-.23v7.76l-1.76.11v-1h0l-.06.07a2.79,2.79,0,0,1-.7.67,2.2,2.2,0,0,1-1,.33,4.52,4.52,0,0,1-1,0,2.3,2.3,0,0,1-2.07-1.85,3.51,3.51,0,0,1-.08-.71V16.81Z"/><path class="cls-2" d="M67.6,18.44H66.44l.16-.61.24-.94c0-.06,0-.08.09-.08s.36,0,.54,0,.13,0,.13-.12V15.58a.09.09,0,0,1,.06-.1l1.74-.78.07,0v2c0,.08,0,.1.1.1h1.6v.09c0,.48,0,1,0,1.44,0,.08,0,.1-.1.1-.49,0-1,0-1.47,0h-.14v3.25a1.29,1.29,0,0,0,.13.61,1,1,0,0,0,.72.51,3.4,3.4,0,0,0,.9,0h.3a.2.2,0,0,0,0,.07c-.14.5-.28,1-.41,1.51a.13.13,0,0,1-.12.11,3.62,3.62,0,0,1-2.2-.31,2.14,2.14,0,0,1-1.13-1.57A4.18,4.18,0,0,1,67.6,22v-3.6Z"/><path class="cls-2" d="M44.51,24.33l-1.87.12V16.81l1.77-.17V18h0l.06-.08a2.75,2.75,0,0,1,.65-.79,2.47,2.47,0,0,1,1.32-.5l.78-.06c-.05.15-.09.29-.14.42-.16.5-.33,1-.49,1.51a.08.08,0,0,1-.09.07,2.58,2.58,0,0,0-.87.16,1.66,1.66,0,0,0-1,1.24,3.2,3.2,0,0,0-.09.75c0,1.16,0,2.33,0,3.49Z"/></svg>