<svg id="Capa_1" data-name="Capa 1" xmlns="http://www.w3.org/2000/svg" viewBox="0 0 100 25"><defs><style>.cls-1{fill:#10125a;}.cls-2{fill:#ed1c24;}</style></defs><title>Mesa de trabajo 1</title><polygon class="cls-1" points="26.91 5.46 29.35 5.46 29.35 11.96 30.8 11.96 30.8 5.46 33.09 5.46 33.27 4.2 26.91 4.2 26.91 5.46"/><rect class="cls-1" x="33.67" y="4.2" width="1.37" height="1.19"/><rect class="cls-1" x="33.67" y="6.15" width="1.37" height="5.81"/><path class="cls-1" d="M38.72,7.22a2,2,0,0,1,1,.3l.08.05.47-1.1-.07,0a3.44,3.44,0,0,0-1.64-.38,2.82,2.82,0,0,0-3,3,2.83,2.83,0,0,0,3,3,3.19,3.19,0,0,0,1.29-.25l0,0,.1-1.27-.13.09a2.18,2.18,0,0,1-1.06.28h0A1.66,1.66,0,0,1,37,9a1.66,1.66,0,0,1,1.73-1.82"/><path class="cls-1" d="M45,10.51l-.3-.95c-.26-.71-.5-1-1.25-1h0l2-2.38H43.93L42.05,8.49H42V4.2H40.59V12H42V9.5h.88c.41,0,.52.15.67.61l.29.9a8.44,8.44,0,0,0,.36.9l0,.05h1.55l-.09-.13A6.65,6.65,0,0,1,45,10.5"/><path class="cls-1" d="M48.43,6.05a2.89,2.89,0,0,0-3,2.76V9a2.93,2.93,0,0,0,3.14,3.05A3.42,3.42,0,0,0,50,11.79l0,0,.09-1.21-.13.07a2.26,2.26,0,0,1-1.22.3,1.75,1.75,0,0,1-1.91-1.55h4.52V9.31a3.44,3.44,0,0,0-.86-2.47,2.87,2.87,0,0,0-2.1-.78m1.51,2.28h-3a1.56,1.56,0,0,1,1.58-1.21,1.39,1.39,0,0,1,1.47,1.21"/><path class="cls-1" d="M54.23,11.83l-.08-.12a4.66,4.66,0,0,1-1-2.7V7.32h1l.2-1.11H53.15v-2l-1.36.54V9a4.82,4.82,0,0,0,.89,2.79l.09.14,0,0h1.53l-.09-.12"/><path class="cls-1" d="M8.32,19.68c-.06-.15-.12-.3-.17-.45A2.4,2.4,0,0,0,7,17.65a2.18,2.18,0,0,0,1.62-2.2,2.29,2.29,0,0,0-2.46-2.37H2.05v7.75H3.5V17.69c.12.16.31.29.79.29H5c1.1,0,1.34.67,1.66,1.61l.14.39a2.68,2.68,0,0,0,.45.83l0,0H9l-.1-.13a6.34,6.34,0,0,1-.57-1M3.5,14.3H5.73c.89,0,1.3.4,1.3,1.25a1.14,1.14,0,0,1-1,1.23H4.31c-.53,0-.81-.22-.81-.66Z"/><path class="cls-1" d="M12,14.92a2.89,2.89,0,0,0-3,2.76,1.34,1.34,0,0,0,0,.2,2.94,2.94,0,0,0,3.15,3.05,3.55,3.55,0,0,0,1.44-.27l.05,0,.09-1.21-.14.08a2.34,2.34,0,0,1-1.21.3,1.77,1.77,0,0,1-1.92-1.55H14.9v-.08A3.34,3.34,0,0,0,14,15.71,2.89,2.89,0,0,0,12,14.92m1.49,2.3h-3A1.54,1.54,0,0,1,12,16a1.39,1.39,0,0,1,1.47,1.22"/><path class="cls-1" d="M17.79,17.39l-.44-.22-.16-.07c-.4-.19-.75-.33-.75-.62,0-.11,0-.46.8-.46a2.71,2.71,0,0,1,1.4.43l.08.05.46-1.1-.07,0a4.87,4.87,0,0,0-1.95-.44c-1.33,0-2.14.59-2.14,1.57s.69,1.29,1.47,1.64l.46.22c.55.25.93.46.93.86s-.26.61-.81.61a3.23,3.23,0,0,1-1.55-.44l-.08-.05L15,20.46l.07,0a4.91,4.91,0,0,0,2,.44c1.62,0,2.2-.89,2.2-1.73,0-1-.74-1.46-1.5-1.81"/><path class="cls-1" d="M22.08,20.58a4.5,4.5,0,0,1-1-2.69v-1.7h1l.21-1.12H21.08v-2l-1.37.53v4.29a4.77,4.77,0,0,0,.89,2.78l.09.14,0,0h1.53l-.09-.13-.08-.12"/><path class="cls-1" d="M25.35,14.92a3,3,0,0,0-3.16,3,2.83,2.83,0,0,0,2.69,3h.26a2.81,2.81,0,0,0,2.06-.85v.76h1.33V18a2.94,2.94,0,0,0-3.18-3.09m0,4.8a1.66,1.66,0,0,1-1.75-1.57,1.62,1.62,0,0,1,0-.22,1.71,1.71,0,0,1,1.62-1.8h.1a1.69,1.69,0,0,1,1.76,1.61v.19a1.68,1.68,0,0,1-1.57,1.79.61.61,0,0,1-.19,0"/><path class="cls-1" d="M33.25,18.35c0,.9-.43,1.37-1.26,1.37s-1.26-.47-1.26-1.37V15H29.37v3.53A2.3,2.3,0,0,0,32,20.93a2.3,2.3,0,0,0,2.62-2.38V15H33.25v3.33"/><path class="cls-1" d="M38.73,15.09h0a3.46,3.46,0,0,0-.9-.15,2.08,2.08,0,0,0-2.33,2.36v3.53H36.8V17.51c0-1,.28-1.36,1-1.36a1.71,1.71,0,0,1,.59.11l.11,0,.3-1.19-.07,0"/><path class="cls-1" d="M41.78,14.92a3,3,0,0,0-3.17,3,2.84,2.84,0,0,0,2.69,3h.26a2.79,2.79,0,0,0,2.06-.85v.76H45V18a2.94,2.94,0,0,0-3.18-3.09m0,4.8A1.66,1.66,0,0,1,40,18.15v-.22a1.72,1.72,0,0,1,1.63-1.8h.12a1.69,1.69,0,0,1,1.76,1.61v.19A1.68,1.68,0,0,1,42,19.72a.61.61,0,0,1-.19,0"/><path class="cls-1" d="M48.41,14.93a2.3,2.3,0,0,0-2.61,2.38v3.52h1.35V17.51c0-.9.44-1.38,1.26-1.38s1.27.48,1.27,1.38v3.32H51V17.31c0-1.49-1-2.38-2.62-2.38"/><path class="cls-1" d="M54.24,20.7a.62.62,0,0,1-.09-.12,4.63,4.63,0,0,1-1-2.69v-1.7h1l.2-1.12H53.15v-2l-1.36.53v4.29a4.77,4.77,0,0,0,.89,2.78l.09.14,0,0h1.53l-.08-.13"/><path class="cls-2" d="M72.62,10.86A1.32,1.32,0,0,0,71.29,12h2.59a1.18,1.18,0,0,0-1.25-1.1"/><path class="cls-2" d="M65.72,11.13a1.44,1.44,0,0,0-1.51,1.37.86.86,0,0,0,0,.16,1.52,1.52,0,1,0,3,.14v-.14a1.46,1.46,0,0,0-1.36-1.53h-.17"/><path class="cls-2" d="M84.35,9.67c-1.38,0-2.47.55-2.64,2h0A12.26,12.26,0,0,0,69.51,0,12.52,12.52,0,0,0,57.93,7.78h4.44l-.23,1.49H58.66v1.59h3.15l-.23,1.44H58.66v.93c0,.55.25.82.71.82h3l-.24,1.49H58.81a2.32,2.32,0,0,1-.46,0h0a1.44,1.44,0,0,1-.93-.54,1.25,1.25,0,0,1-.23-.46.42.42,0,0,0,0-.13c0,.18.06.43.08.52.1.53.23,1,.24,1a12.52,12.52,0,0,0,24.19-.36H80v-3c0-.82-.33-1.35-1.13-1.35s-1.13.53-1.13,1.35v3.06H76.05V12.06c0-1.66,1.21-2.39,2.81-2.39s2.81.74,2.81,2.39v3.48h1.69V12.48c0-.82.22-1.35,1-1.35a1.9,1.9,0,0,1,.67.13l.33-1.47a8.86,8.86,0,0,0-1-.12M69,12.33a3,3,0,0,1-3.3,3.33,3,3,0,0,1-3.19-3,2.86,2.86,0,0,1,3.05-3,2.46,2.46,0,0,1,1.76.67V7.78h1.66V12.3Zm4.24,2.07a3.38,3.38,0,0,0,1.38-.34l-.14,1.33a4.3,4.3,0,0,1-1.66.28,3,3,0,0,1-3.3-3.05,2.89,2.89,0,0,1,3.09-2.93c2.11,0,3.16,1.33,3.12,3.41H71.33a1.74,1.74,0,0,0,1.85,1.31"/><path class="cls-2" d="M88.18,9.67a2.88,2.88,0,0,0-3.09,2.92,3,3,0,0,0,3.3,3.06,4.49,4.49,0,0,0,1.66-.28L90.19,14a3.29,3.29,0,0,1-1.38.33A1.73,1.73,0,0,1,87,13.07h4.35c0-2.07-1-3.41-3.12-3.41M86.89,12a1.33,1.33,0,0,1,1.33-1.1A1.2,1.2,0,0,1,89.47,12Z"/><path class="cls-2" d="M96.27,7.78v2.55a2.44,2.44,0,0,0-1.76-.67,2.86,2.86,0,0,0-3,3,3,3,0,0,0,3.18,3A3,3,0,0,0,98,12.32V7.78H96.27M94.73,14.2a1.45,1.45,0,0,1-1.5-1.4.66.66,0,0,1,0-.14,1.52,1.52,0,1,1,3-.14v.14a1.47,1.47,0,0,1-1.38,1.54h-.15"/></svg>