<?xml version="1.0" encoding="utf-8"?>
<!-- Generator: Adobe Illustrator 17.0.0, SVG Export Plug-In . SVG Version: 6.00 Build 0)  -->
<!DOCTYPE svg PUBLIC "-//W3C//DTD SVG 1.1//EN" "http://www.w3.org/Graphics/SVG/1.1/DTD/svg11.dtd">
<svg version="1.1" id="Capa_1" xmlns="http://www.w3.org/2000/svg" xmlns:xlink="http://www.w3.org/1999/xlink" x="0px" y="0px"
	 width="72px" height="121.224px" viewBox="-23.372 -39.352 72 121.224" enable-background="new -23.372 -39.352 72 121.224"
	 xml:space="preserve">
<path d="M-17.26,72.649c0,0.063,0.063,0.188,0.191,0.188c0.125,0,0.191-0.063,0.191-0.188c0-0.066-0.066-0.191-0.191-0.191
	C-17.197,72.458-17.26,72.583-17.26,72.649 M-16.054,80.407c3.564,0,5.916-3.877,5.916-3.877s0.125-0.063,0.254,0
	c0.125,0.125,0,0.254,0,0.254s-3.433,5.089-8.077,5.089c-2.418,0-4.898-2.862-4.134-7.823l0.063-0.382
	c0.955-5.343,5.086-9.987,9.414-9.987c2.164,0,3.435,1.018,3.435,2.862c0,3.752-4.197,5.405-9.921,6.871
	c-0.194,1.081-0.194,2.033-0.194,2.669C-19.361,78.69-18.086,80.407-16.054,80.407z M9.577,76.78l-0.379,0.51
	c-2.164,2.797-4.325,4.516-5.596,4.516c-1.463,0-1.4-1.907-1.081-3.116l2.797-10.814c0.128-0.445,0.191-0.827,0.191-1.143
	c0-0.698-0.316-1.143-0.761-1.143c-1.654,0-6.361,5.853-8.331,8.393l-1.463,6.996c-0.063,0.507-0.125,0.573-0.254,0.636
	c-0.066,0.066-0.316,0.128-0.89,0.128h-0.197l-0.698-0.063c-0.507,0-0.636-0.066-0.636-0.382c0-0.066,0-0.188,0.066-0.316
	l2.797-13.676c0.125-0.57-0.066-0.952-0.382-0.952c-0.701,0-2.609,2.418-2.609,2.418s-0.066,0.06-0.128,0.06
	c-0.063,0-0.191-0.06-0.191-0.191c0-0.06,0-0.06,0.063-0.128c0.764-1.209,4.2-4.961,5.725-4.961c0.382,0,0.764,0.319,0.764,0.83
	c0,0.06-0.066,0.316-0.066,0.507c-0.063,0.445-0.128,0.639-0.128,0.701l-1.463,7.25l0.698-0.827c4.391-5.599,7.507-8.462,9.22-8.462
	c1.083,0,1.719,0.958,1.719,2.483c0,0.764-0.128,1.713-0.319,2.478l-2.543,9.605c-0.191,0.761-0.448,1.907,0.128,1.907
	c0.51,0,1.463-0.827,3.373-2.988l0.445-0.573c0-0.063,0.066-0.063,0.125-0.063c0.063,0,0.191,0.063,0.191,0.191
	C9.642,76.72,9.642,76.78,9.577,76.78z M17.785,77.416c-0.701,0.89-3.119,4.391-5.346,4.391c-0.764,0-1.143-0.573-1.143-1.528
	c0-0.379,0.06-1.14,0.188-1.654c0,0,2.418-11.7,2.418-11.826c0.063-0.385-0.254-0.573-0.445-0.573c-0.51,0-1.4,0.764-2.418,1.97
	c-0.066,0.066-0.066,0.066-0.128,0.066s-0.191-0.066-0.191-0.191c0-0.06,0-0.06,0.066-0.06c2.227-2.674,3.943-4.328,5.152-4.328
	c0.507,0,0.89,0.445,0.89,1.081c0,0.385-0.06,0.83-0.188,1.337l-2.48,12.467c-0.125,0.636,0.128,0.952,0.319,1.018
	c0.573,0.188,1.143-0.191,1.525-0.701c0.382-0.445,1.463-1.713,1.463-1.713c0-0.068,0.063-0.068,0.128-0.068
	c0.125,0,0.191,0.068,0.191,0.191C17.847,77.356,17.785,77.356,17.785,77.416z M15.558,59.355c0-1.719,0.952-3.307,1.97-3.307
	c0.636,0,1.081,0.57,1.081,1.4v0.128c-0.128,1.842-0.952,3.113-2.033,3.113C15.94,60.626,15.558,60.182,15.558,59.355L15.558,59.355
	z M28.214,67.432c-0.445,0-0.827-0.316-1.146-0.827l-0.445-0.827c-0.254-0.445-1.081-1.081-1.588-1.081
	c-0.89,0-1.91,0.827-2.355,1.97c-0.188,0.382-0.254,0.636-0.254,0.952c0,0.767,0.764,1.973,1.719,3.053l1.525,1.719
	c1.272,1.465,1.842,2.674,1.842,4.006c0,3.307-2.671,5.405-6.805,5.405c-1.463,0-2.546-0.573-2.546-1.782
	c0-0.764,0.51-1.272,1.274-1.272c0.507,0,1.209,0.639,1.651,0.955c0.89,0.57,1.973,0.955,2.669,0.955
	c1.337,0,2.355-1.018,2.355-2.227c0-1.018-0.764-2.036-2.098-3.689l-1.654-1.97c-1.081-1.272-1.591-2.352-1.591-3.307
	c0-1.143,0.698-2.48,1.845-3.689c1.269-1.269,2.797-2.098,4.197-2.098c1.4,0,2.609,1.146,2.609,2.355
	C29.36,66.796,28.849,67.432,28.214,67.432L28.214,67.432z M44.496,77.544C44.496,77.61,44.496,77.61,44.496,77.544l-0.316,0.316
	c-1.845,2.164-3.373,3.946-4.516,3.946c-0.764,0-1.209-0.764-1.209-1.973c0-0.761,0.188-2.224,0.636-4.071l-0.761,0.89
	c-3.179,3.307-5.534,5.217-6.486,5.217c-1.337,0-2.48-2.098-2.48-4.453c0-4.259,3.307-9.283,7.889-11.891
	c1.842-1.018,4.388-1.847,6.104-1.847c0.257,0,0.445,0.068,0.955,0.068l-2.543,12.718c-0.257,1.209-0.385,1.97-0.385,2.227
	c0,0.379,0.191,0.636,0.445,0.636c0.701,0,2.355-1.782,2.48-1.91l0.063-0.06c0.128,0,0.188,0.06,0.188,0.188
	C44.558,77.481,44.496,77.544,44.496,77.544z M48.376,21.896c-5.979,6.868-10.429,14.817-13.482,23.087c0,0-0.188,0.51-0.445,0.257
	c-1.081-1.081,1.209-10.369,2.862-14.058C25.038,41.676,16.006,45.046,7.863,45.046c-11.259,0-22.896-13.166-19.207-36.253
	c-0.955,0.191-10.939,2.164-10.939,2.164c-0.636,0.125-1.018-0.063-1.081-0.51c-0.063-0.442,0.254-0.827,0.507-0.89
	c0.254-0.063,10.814-2.227,11.829-2.48c4.45-24.932,23.723-46.428,43.629-46.428c9.984,0,15.837,4.832,15.837,13.291
	c0,17.554-19.589,24.995-46.237,31.991C1.44,10.891,1.246,15.47,1.246,18.332c0,11.829,5.596,19.079,15.073,19.079
	c4.579,0,11.256-1.209,19.333-7.567c-3.815,0.824-11.575,1.334-13.99,0.188c-0.319-0.316,0.254-0.445,0.254-0.445
	c8.715-1.397,17.363-4.328,25.314-8.904c0,0,0.573-0.445,1.143,0.128C48.946,21.257,48.376,21.896,48.376,21.896z M-11.666,66.414
	c0.191-1.842-0.764-3.37-3.37-1.46c-1.209,0.89-3.307,3.874-4.071,8.202C-15.543,72.264-12.108,70.611-11.666,66.414L-11.666,66.414
	z M31.968,76.464c0,1.782,0.507,3.815,1.269,3.815c0.639,0,2.227-1.334,5.596-4.767l0.445-0.385l1.97-9.286
	c-1.334,0-4.071,0.254-5.405,1.143C33.3,68.641,31.968,72.774,31.968,76.464L31.968,76.464z M37.117-27.078
	c0.827-8.459-3.689-15.775-15.775-6.931C15.558-29.813,6.016-16.014,2.455,4.151C19.182,0.146,35.147-7.427,37.117-27.078
	L37.117-27.078z"/>
</svg>
